<svg xmlns="http://www.w3.org/2000/svg" viewBox="0 0 520 200" font-family="ui-sans-serif,-apple-system,Segoe UI,Roboto,sans-serif">
  <rect x="1" y="1" width="518" height="198" rx="10" fill="#ffffff" stroke="#e2e8f0"/>
  <text x="260" y="42" fill="#475569" font-size="12.5" text-anchor="middle">feasible(x) as x increases from small to large:</text>
  <g stroke="#fca5a5" fill="#fee2e2">
    <rect x="68" y="56" width="48" height="48"/><rect x="116" y="56" width="48" height="48"/><rect x="164" y="56" width="48" height="48"/><rect x="212" y="56" width="48" height="48"/>
  </g>
  <g stroke="#86efac" fill="#dcfce7">
    <rect x="260" y="56" width="48" height="48"/><rect x="308" y="56" width="48" height="48"/><rect x="356" y="56" width="48" height="48"/><rect x="404" y="56" width="48" height="48"/>
  </g>
  <g font-size="18" text-anchor="middle" font-family="ui-monospace,Menlo,monospace" font-weight="600">
    <text x="92" y="86" fill="#dc2626">F</text><text x="140" y="86" fill="#dc2626">F</text><text x="188" y="86" fill="#dc2626">F</text><text x="236" y="86" fill="#dc2626">F</text>
    <text x="284" y="86" fill="#059669">T</text><text x="332" y="86" fill="#059669">T</text><text x="380" y="86" fill="#059669">T</text><text x="428" y="86" fill="#059669">T</text>
  </g>
  <polygon points="284,112 276,124 292,124" fill="#2563eb"/>
  <text x="284" y="143" fill="#2563eb" font-size="12.5" text-anchor="middle" font-weight="600">first True = the answer</text>
  <text x="260" y="176" fill="#475569" font-size="12.5" text-anchor="middle">make the goal a monotone yes/no, then binary search for the first True</text>
</svg>
