<svg xmlns="http://www.w3.org/2000/svg" viewBox="0 0 520 220" font-family="ui-sans-serif,-apple-system,Segoe UI,Roboto,sans-serif">
  <rect x="1" y="1" width="518" height="218" rx="10" fill="#ffffff" stroke="#e2e8f0"/>
  <g fill="#94a3b8" font-size="12" text-anchor="middle" font-family="ui-monospace,Menlo,monospace">
    <text x="120" y="46">0</text><text x="176" y="46">1</text><text x="232" y="46">2</text><text x="288" y="46">3</text><text x="344" y="46">4</text><text x="400" y="46">5</text>
  </g>
  <g stroke="#94a3b8">
    <rect x="92" y="56" width="56" height="52" fill="#f1f5f9"/>
    <rect x="148" y="56" width="56" height="52" fill="#f1f5f9"/>
    <rect x="204" y="56" width="56" height="52" fill="#f1f5f9"/>
    <rect x="260" y="56" width="56" height="52" fill="#dbeafe" stroke="#60a5fa"/>
    <rect x="316" y="56" width="56" height="52" fill="#f1f5f9"/>
    <rect x="372" y="56" width="56" height="52" fill="#dbeafe" stroke="#60a5fa"/>
  </g>
  <g font-size="21" text-anchor="middle" font-family="ui-monospace,Menlo,monospace">
    <text x="120" y="89" fill="#1e293b">0</text><text x="176" y="89" fill="#1e293b">1</text><text x="232" y="89" fill="#1e293b">2</text><text x="288" y="89" fill="#dc2626">5</text><text x="344" y="89" fill="#1e293b">4</text><text x="400" y="89" fill="#dc2626">3</text>
  </g>
  <path d="M 288 114 C 288 170, 400 170, 400 120" fill="none" stroke="#2563eb" stroke-width="1.5"/>
  <polygon points="400,112 392,124 408,124" fill="#2563eb"/>
  <text x="344" y="184" fill="#2563eb" font-size="12" text-anchor="middle" font-weight="600">5 belongs at index 5</text>
  <text x="260" y="208" fill="#475569" font-size="13" text-anchor="middle">put each value at its index; the mismatch is the missing or duplicate</text>
</svg>
