<svg xmlns="http://www.w3.org/2000/svg" viewBox="0 0 520 280" font-family="ui-sans-serif,-apple-system,Segoe UI,Roboto,sans-serif">
  <rect x="1" y="1" width="518" height="278" rx="10" fill="#ffffff" stroke="#e2e8f0"/>
  <defs>
    <marker id="dg-g" markerWidth="8" markerHeight="8" refX="5" refY="3" orient="auto"><path d="M0,0 L6,3 L0,6 Z" fill="#059669"/></marker>
    <marker id="dg-b" markerWidth="8" markerHeight="8" refX="5" refY="3" orient="auto"><path d="M0,0 L6,3 L0,6 Z" fill="#2563eb"/></marker>
  </defs>
  <g stroke="#94a3b8">
    <rect x="140" y="56" width="56" height="56" fill="#dbeafe"/><rect x="200" y="56" width="56" height="56" fill="#dbeafe"/><rect x="260" y="56" width="56" height="56" fill="#dbeafe"/><rect x="320" y="56" width="56" height="56" fill="#f1f5f9"/>
    <rect x="140" y="116" width="56" height="56" fill="#f1f5f9"/><rect x="200" y="116" width="56" height="56" fill="#f1f5f9"/>
    <rect x="260" y="116" width="56" height="56" fill="#fde68a" stroke="#d97706" stroke-width="2"/>
    <rect x="320" y="116" width="56" height="56" fill="#f1f5f9"/>
    <rect x="140" y="176" width="56" height="56" fill="#f1f5f9"/><rect x="200" y="176" width="56" height="56" fill="#f1f5f9"/><rect x="260" y="176" width="56" height="56" fill="#dbeafe"/><rect x="320" y="176" width="56" height="56" fill="#dbeafe"/>
  </g>
  <path d="M288,88 L288,132" fill="none" stroke="#059669" stroke-width="1.5" marker-end="url(#dg-g)"/>
  <path d="M228,144 L282,144" fill="none" stroke="#2563eb" stroke-width="1.5" marker-end="url(#dg-b)"/>
  <text x="288" y="80" fill="#059669" font-size="11" text-anchor="middle" font-weight="600">up</text>
  <text x="212" y="162" fill="#2563eb" font-size="11" text-anchor="middle" font-weight="600">left</text>
  <text x="288" y="164" fill="#1e293b" font-size="12" text-anchor="middle" font-weight="600" font-family="ui-monospace,Menlo,monospace">i,j</text>
  <text x="168" y="48" fill="#94a3b8" font-size="11" text-anchor="middle">start</text>
  <text x="348" y="250" fill="#94a3b8" font-size="11" text-anchor="middle">end</text>
  <text x="260" y="268" fill="#475569" font-size="12.5" text-anchor="middle" font-family="ui-monospace,Menlo,monospace">dp[i][j] = grid[i][j] + min(up, left)</text>
</svg>
