<svg xmlns="http://www.w3.org/2000/svg" viewBox="0 0 520 280" font-family="ui-sans-serif,-apple-system,Segoe UI,Roboto,sans-serif">
  <rect x="1" y="1" width="518" height="278" rx="10" fill="#ffffff" stroke="#e2e8f0"/>
  <rect x="150" y="16" width="16" height="12" fill="#d1fae5" stroke="#059669"/>
  <text x="172" y="26" fill="#059669" font-size="12">selected</text>
  <rect x="268" y="16" width="16" height="12" fill="#cbd5e1" fill-opacity="0.5" stroke="#94a3b8"/>
  <text x="290" y="26" fill="#94a3b8" font-size="12">skipped</text>

  <rect x="101" y="48" width="82" height="20" fill="#d1fae5" stroke="#059669" stroke-width="2"/>
  <text x="142" y="62" fill="#059669" font-size="13" text-anchor="middle" font-family="ui-monospace,Menlo,monospace">A [1,3]</text>
  <rect x="142" y="82" width="123" height="20" fill="#cbd5e1" fill-opacity="0.5" stroke="#94a3b8"/>
  <text x="203" y="96" fill="#94a3b8" font-size="13" text-anchor="middle" font-family="ui-monospace,Menlo,monospace">B [2,5]</text>
  <rect x="224" y="116" width="123" height="20" fill="#d1fae5" stroke="#059669" stroke-width="2"/>
  <text x="285" y="130" fill="#059669" font-size="13" text-anchor="middle" font-family="ui-monospace,Menlo,monospace">C [4,7]</text>
  <rect x="306" y="150" width="82" height="20" fill="#cbd5e1" fill-opacity="0.5" stroke="#94a3b8"/>
  <text x="347" y="164" fill="#94a3b8" font-size="13" text-anchor="middle" font-family="ui-monospace,Menlo,monospace">D [6,8]</text>
  <rect x="388" y="184" width="82" height="20" fill="#d1fae5" stroke="#059669" stroke-width="2"/>
  <text x="429" y="198" fill="#059669" font-size="13" text-anchor="middle" font-family="ui-monospace,Menlo,monospace">E [8,10]</text>

  <line x1="60" y1="222" x2="474" y2="222" stroke="#94a3b8" stroke-width="1.5"/>
  <polygon points="482,222 474,218 474,226" fill="#94a3b8"/>
  <text x="486" y="226" fill="#94a3b8" font-size="11">time</text>
  <g stroke="#94a3b8" stroke-width="1">
    <line x1="60" y1="218" x2="60" y2="226"/><line x1="142" y1="218" x2="142" y2="226"/><line x1="224" y1="218" x2="224" y2="226"/><line x1="306" y1="218" x2="306" y2="226"/><line x1="388" y1="218" x2="388" y2="226"/><line x1="470" y1="218" x2="470" y2="226"/>
  </g>
  <g fill="#94a3b8" font-size="12" text-anchor="middle" font-family="ui-monospace,Menlo,monospace">
    <text x="60" y="240">0</text><text x="142" y="240">2</text><text x="224" y="240">4</text><text x="306" y="240">6</text><text x="388" y="240">8</text><text x="470" y="240">10</text>
  </g>
  <text x="260" y="264" fill="#475569" font-size="13" text-anchor="middle">pick the interval that finishes earliest, then the next that starts after it</text>
</svg>
