<svg xmlns="http://www.w3.org/2000/svg" viewBox="0 0 520 240" font-family="ui-sans-serif,-apple-system,Segoe UI,Roboto,sans-serif">
  <rect x="1" y="1" width="518" height="238" rx="10" fill="#ffffff" stroke="#e2e8f0"/>
  <g fill="#94a3b8" font-size="12" text-anchor="middle" font-family="ui-monospace,Menlo,monospace">
    <text x="176" y="44">0</text><text x="232" y="44">1</text><text x="288" y="44">2</text><text x="344" y="44">3</text>
  </g>
  <g stroke="#94a3b8">
    <rect x="148" y="54" width="56" height="50" fill="#f1f5f9"/>
    <rect x="204" y="54" width="56" height="50" fill="#dbeafe" stroke="#60a5fa"/>
    <rect x="260" y="54" width="56" height="50" fill="#f1f5f9"/>
    <rect x="316" y="54" width="56" height="50" fill="#f1f5f9"/>
  </g>
  <g fill="#1e293b" font-size="20" text-anchor="middle" font-family="ui-monospace,Menlo,monospace">
    <text x="176" y="86">2</text><text x="232" y="86">7</text><text x="288" y="86">11</text><text x="344" y="86">15</text>
  </g>
  <polygon points="232,112 224,124 240,124" fill="#2563eb"/>
  <text x="232" y="142" fill="#2563eb" font-size="13" text-anchor="middle" font-weight="600">x = 7</text>
  <text x="133" y="152" fill="#94a3b8" font-size="12" text-anchor="middle" font-family="ui-monospace,Menlo,monospace">seen set</text>
  <rect x="58" y="158" width="150" height="52" rx="12" fill="#f1f5f9" stroke="#94a3b8"/>
  <text x="133" y="191" fill="#059669" font-size="20" text-anchor="middle" font-family="ui-monospace,Menlo,monospace">{ 2 }</text>
  <line x1="420" y1="184" x2="216" y2="184" stroke="#94a3b8" stroke-width="1.5"/>
  <polygon points="210,184 222,178 222,190" fill="#94a3b8"/>
  <text x="330" y="172" fill="#475569" font-size="12" text-anchor="middle">target - x = 9 - 7 = 2 in seen?</text>
  <text x="330" y="204" fill="#059669" font-size="12" text-anchor="middle" font-weight="600">yes, pair found</text>
  <text x="260" y="228" fill="#475569" font-size="13" text-anchor="middle">one pass, O(1) lookups</text>
</svg>
