<svg xmlns="http://www.w3.org/2000/svg" viewBox="0 0 520 290" font-family="ui-sans-serif,-apple-system,Segoe UI,Roboto,sans-serif">
  <rect x="1" y="1" width="518" height="288" rx="10" fill="#ffffff" stroke="#e2e8f0"/>
  <g stroke="#94a3b8" stroke-width="1.5">
    <line x1="260" y1="52" x2="180" y2="112"/><line x1="260" y1="52" x2="340" y2="112"/>
    <line x1="180" y1="112" x2="135" y2="172"/><line x1="180" y1="112" x2="225" y2="172"/>
  </g>
  <g stroke="#94a3b8">
    <circle cx="260" cy="52" r="20" fill="#fde68a" stroke="#d97706" stroke-width="2"/>
    <circle cx="180" cy="112" r="20" fill="#f1f5f9"/>
    <circle cx="340" cy="112" r="20" fill="#f1f5f9"/>
    <circle cx="135" cy="172" r="20" fill="#f1f5f9"/>
    <circle cx="225" cy="172" r="20" fill="#f1f5f9"/>
  </g>
  <g fill="#1e293b" font-size="18" text-anchor="middle" font-family="ui-monospace,Menlo,monospace">
    <text x="260" y="58">1</text><text x="180" y="118">3</text><text x="340" y="118">2</text><text x="135" y="178">5</text><text x="225" y="178">4</text>
  </g>
  <text x="292" y="46" fill="#d97706" font-size="12" font-weight="600">min at the root</text>
  <text x="70" y="214" fill="#94a3b8" font-size="12" font-family="ui-monospace,Menlo,monospace">stored as an array:</text>
  <g fill="#94a3b8" font-size="11" text-anchor="middle" font-family="ui-monospace,Menlo,monospace">
    <text x="185" y="226">0</text><text x="235" y="226">1</text><text x="285" y="226">2</text><text x="335" y="226">3</text><text x="385" y="226">4</text>
  </g>
  <g fill="#f1f5f9" stroke="#94a3b8">
    <rect x="160" y="232" width="50" height="40"/><rect x="210" y="232" width="50" height="40"/><rect x="260" y="232" width="50" height="40"/><rect x="310" y="232" width="50" height="40"/><rect x="360" y="232" width="50" height="40"/>
  </g>
  <g fill="#1e293b" font-size="18" text-anchor="middle" font-family="ui-monospace,Menlo,monospace">
    <text x="185" y="258">1</text><text x="235" y="258">3</text><text x="285" y="258">2</text><text x="335" y="258">5</text><text x="385" y="258">4</text>
  </g>
  <text x="70" y="258" fill="#475569" font-size="11" font-family="ui-monospace,Menlo,monospace">node i:</text>
  <text x="70" y="272" fill="#475569" font-size="11" font-family="ui-monospace,Menlo,monospace">2i+1, 2i+2</text>
</svg>
