<svg xmlns="http://www.w3.org/2000/svg" viewBox="0 0 520 232" font-family="ui-sans-serif,-apple-system,Segoe UI,Roboto,sans-serif">
  <rect x="1" y="1" width="518" height="230" rx="10" fill="#ffffff" stroke="#e2e8f0"/>
  <rect x="132" y="44" width="36" height="64" fill="#cbd5e1" fill-opacity="0.5"/>
  <text x="44" y="82" fill="#2563eb" font-size="12" text-anchor="middle" font-weight="600">input</text>
  <g font-family="ui-monospace,Menlo,monospace">
    <rect x="96" y="50" width="72" height="22" rx="4" fill="#2563eb"/>
    <text x="132" y="66" fill="#ffffff" font-size="12" text-anchor="middle">[1,3]</text>
    <rect x="348" y="50" width="72" height="22" rx="4" fill="#2563eb"/>
    <text x="384" y="66" fill="#ffffff" font-size="12" text-anchor="middle">[8,10]</text>
    <rect x="132" y="80" width="144" height="22" rx="4" fill="#2563eb"/>
    <text x="204" y="96" fill="#ffffff" font-size="12" text-anchor="middle">[2,6]</text>
  </g>
  <line x1="60" y1="118" x2="456" y2="118" stroke="#94a3b8" stroke-width="1.5"/>
  <g stroke="#94a3b8" stroke-width="1">
    <line x1="96" y1="114" x2="96" y2="122"/><line x1="132" y1="114" x2="132" y2="122"/><line x1="168" y1="114" x2="168" y2="122"/><line x1="276" y1="114" x2="276" y2="122"/><line x1="348" y1="114" x2="348" y2="122"/><line x1="420" y1="114" x2="420" y2="122"/>
  </g>
  <g fill="#94a3b8" font-size="11" text-anchor="middle" font-family="ui-monospace,Menlo,monospace">
    <text x="96" y="134">1</text><text x="132" y="134">2</text><text x="168" y="134">3</text><text x="276" y="134">6</text><text x="348" y="134">8</text><text x="420" y="134">10</text>
  </g>
  <text x="44" y="166" fill="#059669" font-size="12" text-anchor="middle" font-weight="600">merged</text>
  <g font-family="ui-monospace,Menlo,monospace">
    <rect x="96" y="150" width="180" height="22" rx="4" fill="#059669"/>
    <text x="186" y="166" fill="#ffffff" font-size="12" text-anchor="middle">[1,6]</text>
    <rect x="348" y="150" width="72" height="22" rx="4" fill="#059669"/>
    <text x="384" y="166" fill="#ffffff" font-size="12" text-anchor="middle">[8,10]</text>
  </g>
  <text x="260" y="204" fill="#475569" font-size="13" text-anchor="middle">sort by start, then merge overlaps</text>
</svg>
