<svg xmlns="http://www.w3.org/2000/svg" viewBox="0 0 520 348" font-family="ui-sans-serif,-apple-system,Segoe UI,Roboto,sans-serif">
  <rect x="1" y="1" width="518" height="346" rx="10" fill="#ffffff" stroke="#e2e8f0"/>
  <text x="260" y="36" fill="#1e293b" font-size="14" text-anchor="middle" font-weight="600">Sieve of Eratosthenes: 2..31</text>
  <g>
    <rect x="84" y="56" width="52" height="40" fill="#d1fae5" stroke="#059669" stroke-width="2"/>
    <rect x="144" y="56" width="52" height="40" fill="#d1fae5" stroke="#059669" stroke-width="2"/>
    <rect x="204" y="56" width="52" height="40" fill="#f1f5f9" stroke="#94a3b8"/>
    <rect x="264" y="56" width="52" height="40" fill="#d1fae5" stroke="#059669" stroke-width="2"/>
    <rect x="324" y="56" width="52" height="40" fill="#f1f5f9" stroke="#94a3b8"/>
    <rect x="384" y="56" width="52" height="40" fill="#d1fae5" stroke="#059669" stroke-width="2"/>
    <rect x="84" y="108" width="52" height="40" fill="#f1f5f9" stroke="#94a3b8"/>
    <rect x="144" y="108" width="52" height="40" fill="#f1f5f9" stroke="#94a3b8"/>
    <rect x="204" y="108" width="52" height="40" fill="#f1f5f9" stroke="#94a3b8"/>
    <rect x="264" y="108" width="52" height="40" fill="#d1fae5" stroke="#059669" stroke-width="2"/>
    <rect x="324" y="108" width="52" height="40" fill="#f1f5f9" stroke="#94a3b8"/>
    <rect x="384" y="108" width="52" height="40" fill="#d1fae5" stroke="#059669" stroke-width="2"/>
    <rect x="84" y="160" width="52" height="40" fill="#f1f5f9" stroke="#94a3b8"/>
    <rect x="144" y="160" width="52" height="40" fill="#f1f5f9" stroke="#94a3b8"/>
    <rect x="204" y="160" width="52" height="40" fill="#f1f5f9" stroke="#94a3b8"/>
    <rect x="264" y="160" width="52" height="40" fill="#d1fae5" stroke="#059669" stroke-width="2"/>
    <rect x="324" y="160" width="52" height="40" fill="#f1f5f9" stroke="#94a3b8"/>
    <rect x="384" y="160" width="52" height="40" fill="#d1fae5" stroke="#059669" stroke-width="2"/>
    <rect x="84" y="212" width="52" height="40" fill="#f1f5f9" stroke="#94a3b8"/>
    <rect x="144" y="212" width="52" height="40" fill="#f1f5f9" stroke="#94a3b8"/>
    <rect x="204" y="212" width="52" height="40" fill="#f1f5f9" stroke="#94a3b8"/>
    <rect x="264" y="212" width="52" height="40" fill="#d1fae5" stroke="#059669" stroke-width="2"/>
    <rect x="324" y="212" width="52" height="40" fill="#f1f5f9" stroke="#94a3b8"/>
    <rect x="384" y="212" width="52" height="40" fill="#f1f5f9" stroke="#94a3b8"/>
    <rect x="84" y="264" width="52" height="40" fill="#f1f5f9" stroke="#94a3b8"/>
    <rect x="144" y="264" width="52" height="40" fill="#f1f5f9" stroke="#94a3b8"/>
    <rect x="204" y="264" width="52" height="40" fill="#f1f5f9" stroke="#94a3b8"/>
    <rect x="264" y="264" width="52" height="40" fill="#d1fae5" stroke="#059669" stroke-width="2"/>
    <rect x="324" y="264" width="52" height="40" fill="#f1f5f9" stroke="#94a3b8"/>
    <rect x="384" y="264" width="52" height="40" fill="#d1fae5" stroke="#059669" stroke-width="2"/>
  </g>
  <g>
    <line x1="210" y1="62" x2="250" y2="90" stroke="#94a3b8" stroke-width="1"/>
    <line x1="330" y1="62" x2="370" y2="90" stroke="#94a3b8" stroke-width="1"/>
    <line x1="90" y1="114" x2="130" y2="142" stroke="#94a3b8" stroke-width="1"/>
    <line x1="150" y1="114" x2="190" y2="142" stroke="#94a3b8" stroke-width="1"/>
    <line x1="210" y1="114" x2="250" y2="142" stroke="#94a3b8" stroke-width="1"/>
    <line x1="330" y1="114" x2="370" y2="142" stroke="#94a3b8" stroke-width="1"/>
    <line x1="90" y1="166" x2="130" y2="194" stroke="#94a3b8" stroke-width="1"/>
    <line x1="150" y1="166" x2="190" y2="194" stroke="#94a3b8" stroke-width="1"/>
    <line x1="210" y1="166" x2="250" y2="194" stroke="#94a3b8" stroke-width="1"/>
    <line x1="330" y1="166" x2="370" y2="194" stroke="#94a3b8" stroke-width="1"/>
    <line x1="90" y1="218" x2="130" y2="246" stroke="#94a3b8" stroke-width="1"/>
    <line x1="150" y1="218" x2="190" y2="246" stroke="#94a3b8" stroke-width="1"/>
    <line x1="210" y1="218" x2="250" y2="246" stroke="#94a3b8" stroke-width="1"/>
    <line x1="330" y1="218" x2="370" y2="246" stroke="#94a3b8" stroke-width="1"/>
    <line x1="390" y1="218" x2="430" y2="246" stroke="#94a3b8" stroke-width="1"/>
    <line x1="90" y1="270" x2="130" y2="298" stroke="#94a3b8" stroke-width="1"/>
    <line x1="150" y1="270" x2="190" y2="298" stroke="#94a3b8" stroke-width="1"/>
    <line x1="210" y1="270" x2="250" y2="298" stroke="#94a3b8" stroke-width="1"/>
    <line x1="330" y1="270" x2="370" y2="298" stroke="#94a3b8" stroke-width="1"/>
  </g>
  <g>
    <text x="110" y="82" fill="#059669" font-size="18" text-anchor="middle" font-weight="600" font-family="ui-monospace,Menlo,monospace">2</text>
    <text x="170" y="82" fill="#059669" font-size="18" text-anchor="middle" font-weight="600" font-family="ui-monospace,Menlo,monospace">3</text>
    <text x="230" y="82" fill="#94a3b8" font-size="18" text-anchor="middle" font-family="ui-monospace,Menlo,monospace">4</text>
    <text x="290" y="82" fill="#059669" font-size="18" text-anchor="middle" font-weight="600" font-family="ui-monospace,Menlo,monospace">5</text>
    <text x="350" y="82" fill="#94a3b8" font-size="18" text-anchor="middle" font-family="ui-monospace,Menlo,monospace">6</text>
    <text x="410" y="82" fill="#059669" font-size="18" text-anchor="middle" font-weight="600" font-family="ui-monospace,Menlo,monospace">7</text>
    <text x="110" y="134" fill="#94a3b8" font-size="18" text-anchor="middle" font-family="ui-monospace,Menlo,monospace">8</text>
    <text x="170" y="134" fill="#94a3b8" font-size="18" text-anchor="middle" font-family="ui-monospace,Menlo,monospace">9</text>
    <text x="230" y="134" fill="#94a3b8" font-size="18" text-anchor="middle" font-family="ui-monospace,Menlo,monospace">10</text>
    <text x="290" y="134" fill="#059669" font-size="18" text-anchor="middle" font-weight="600" font-family="ui-monospace,Menlo,monospace">11</text>
    <text x="350" y="134" fill="#94a3b8" font-size="18" text-anchor="middle" font-family="ui-monospace,Menlo,monospace">12</text>
    <text x="410" y="134" fill="#059669" font-size="18" text-anchor="middle" font-weight="600" font-family="ui-monospace,Menlo,monospace">13</text>
    <text x="110" y="186" fill="#94a3b8" font-size="18" text-anchor="middle" font-family="ui-monospace,Menlo,monospace">14</text>
    <text x="170" y="186" fill="#94a3b8" font-size="18" text-anchor="middle" font-family="ui-monospace,Menlo,monospace">15</text>
    <text x="230" y="186" fill="#94a3b8" font-size="18" text-anchor="middle" font-family="ui-monospace,Menlo,monospace">16</text>
    <text x="290" y="186" fill="#059669" font-size="18" text-anchor="middle" font-weight="600" font-family="ui-monospace,Menlo,monospace">17</text>
    <text x="350" y="186" fill="#94a3b8" font-size="18" text-anchor="middle" font-family="ui-monospace,Menlo,monospace">18</text>
    <text x="410" y="186" fill="#059669" font-size="18" text-anchor="middle" font-weight="600" font-family="ui-monospace,Menlo,monospace">19</text>
    <text x="110" y="238" fill="#94a3b8" font-size="18" text-anchor="middle" font-family="ui-monospace,Menlo,monospace">20</text>
    <text x="170" y="238" fill="#94a3b8" font-size="18" text-anchor="middle" font-family="ui-monospace,Menlo,monospace">21</text>
    <text x="230" y="238" fill="#94a3b8" font-size="18" text-anchor="middle" font-family="ui-monospace,Menlo,monospace">22</text>
    <text x="290" y="238" fill="#059669" font-size="18" text-anchor="middle" font-weight="600" font-family="ui-monospace,Menlo,monospace">23</text>
    <text x="350" y="238" fill="#94a3b8" font-size="18" text-anchor="middle" font-family="ui-monospace,Menlo,monospace">24</text>
    <text x="410" y="238" fill="#94a3b8" font-size="18" text-anchor="middle" font-family="ui-monospace,Menlo,monospace">25</text>
    <text x="110" y="290" fill="#94a3b8" font-size="18" text-anchor="middle" font-family="ui-monospace,Menlo,monospace">26</text>
    <text x="170" y="290" fill="#94a3b8" font-size="18" text-anchor="middle" font-family="ui-monospace,Menlo,monospace">27</text>
    <text x="230" y="290" fill="#94a3b8" font-size="18" text-anchor="middle" font-family="ui-monospace,Menlo,monospace">28</text>
    <text x="290" y="290" fill="#059669" font-size="18" text-anchor="middle" font-weight="600" font-family="ui-monospace,Menlo,monospace">29</text>
    <text x="350" y="290" fill="#94a3b8" font-size="18" text-anchor="middle" font-family="ui-monospace,Menlo,monospace">30</text>
    <text x="410" y="290" fill="#059669" font-size="18" text-anchor="middle" font-weight="600" font-family="ui-monospace,Menlo,monospace">31</text>
  </g>
  <text x="260" y="332" fill="#475569" font-size="13" text-anchor="middle">cross out every multiple of each prime; what remains is prime</text>
</svg>
