<svg xmlns="http://www.w3.org/2000/svg" viewBox="0 0 520 200" font-family="ui-sans-serif,-apple-system,Segoe UI,Roboto,sans-serif">
  <rect x="1" y="1" width="518" height="198" rx="10" fill="#ffffff" stroke="#e2e8f0"/>
  <g stroke="#94a3b8">
    <rect x="78" y="56" width="52" height="52" fill="#eff6ff"/><rect x="130" y="56" width="52" height="52" fill="#eff6ff"/><rect x="182" y="56" width="52" height="52" fill="#eff6ff"/>
    <rect x="234" y="56" width="52" height="52" fill="#fde68a" stroke="#d97706" stroke-width="2"/>
    <rect x="286" y="56" width="52" height="52" fill="#f1f5f9"/><rect x="338" y="56" width="52" height="52" fill="#f1f5f9"/><rect x="390" y="56" width="52" height="52" fill="#f1f5f9"/>
  </g>
  <g fill="#1e293b" font-size="20" text-anchor="middle" font-family="ui-monospace,Menlo,monospace">
    <text x="104" y="89">2</text><text x="156" y="89">1</text><text x="208" y="89">3</text><text x="260" y="89">5</text><text x="312" y="89">8</text><text x="364" y="89">7</text><text x="416" y="89">6</text>
  </g>
  <path d="M78 120 L78 126 L234 126 L234 120" fill="none" stroke="#2563eb" stroke-width="1.5"/>
  <text x="156" y="144" fill="#2563eb" font-size="13" text-anchor="middle" font-weight="600">&lt; pivot</text>
  <text x="260" y="144" fill="#d97706" font-size="13" text-anchor="middle" font-weight="600">pivot</text>
  <path d="M286 120 L286 126 L442 126 L442 120" fill="none" stroke="#475569" stroke-width="1.5"/>
  <text x="364" y="144" fill="#475569" font-size="13" text-anchor="middle" font-weight="600">&gt; pivot</text>
  <text x="260" y="178" fill="#475569" font-size="13" text-anchor="middle">the pivot lands in its final spot; recurse only into the side holding k</text>
</svg>
