<svg xmlns="http://www.w3.org/2000/svg" viewBox="0 0 720 380" font-family="ui-sans-serif,-apple-system,Segoe UI,Roboto,sans-serif">
  <defs>
    <marker id="ah" markerWidth="9" markerHeight="9" refX="7" refY="3" orient="auto" markerUnits="userSpaceOnUse">
      <path d="M0,0 L7,3 L0,6 Z" fill="#94a3b8"/>
    </marker>
  </defs>
  <rect x="1" y="1" width="718" height="378" rx="10" fill="#ffffff" stroke="#e2e8f0"/>
  <g stroke="#94a3b8" stroke-width="1.5" fill="none" marker-end="url(#ah)">
    <path d="M330,62 L200,88"/>
    <path d="M390,62 L520,88"/>
    <path d="M550,132 L550,158"/>
    <path d="M550,202 L550,228"/>
    <path d="M175,132 L197,228"/>
    <path d="M463,250 L288,250"/>
    <path d="M205,272 L338,308"/>
  </g>
  <g font-size="14" text-anchor="middle">
    <g>
      <rect x="275" y="20" width="170" height="42" rx="8" fill="#dbeafe" stroke="#60a5fa"/>
      <text x="360" y="46" fill="#1e293b" font-weight="600">Foundations</text>
    </g>
    <g>
      <rect x="85" y="90" width="170" height="42" rx="8" fill="#f1f5f9" stroke="#94a3b8"/>
      <text x="170" y="116" fill="#1e293b">Search and sort</text>
    </g>
    <g>
      <rect x="465" y="90" width="170" height="42" rx="8" fill="#f1f5f9" stroke="#94a3b8"/>
      <text x="550" y="116" fill="#1e293b">Linear structures</text>
    </g>
    <g>
      <rect x="465" y="160" width="170" height="42" rx="8" fill="#f1f5f9" stroke="#94a3b8"/>
      <text x="550" y="186" fill="#1e293b">Trees</text>
    </g>
    <g>
      <rect x="465" y="230" width="170" height="42" rx="8" fill="#f1f5f9" stroke="#94a3b8"/>
      <text x="550" y="256" fill="#1e293b">Graphs</text>
    </g>
    <g>
      <rect x="115" y="230" width="170" height="42" rx="8" fill="#f1f5f9" stroke="#94a3b8"/>
      <text x="200" y="256" fill="#1e293b">Backtracking and DP</text>
    </g>
    <g>
      <rect x="275" y="310" width="170" height="42" rx="8" fill="#fde68a" stroke="#d97706"/>
      <text x="360" y="336" fill="#1e293b" font-weight="600">Advanced</text>
    </g>
  </g>
</svg>
