<svg xmlns="http://www.w3.org/2000/svg" viewBox="0 0 520 236" font-family="ui-sans-serif,-apple-system,Segoe UI,Roboto,sans-serif">
  <rect x="1" y="1" width="518" height="234" rx="10" fill="#ffffff" stroke="#e2e8f0"/>
  <text x="100" y="86" fill="#475569" font-size="13" text-anchor="middle" font-family="ui-monospace,Menlo,monospace">a</text>
  <text x="100" y="166" fill="#475569" font-size="13" text-anchor="middle" font-family="ui-monospace,Menlo,monospace">P</text>
  <g fill="#94a3b8" font-size="12" text-anchor="middle" font-family="ui-monospace,Menlo,monospace">
    <text x="164" y="50">0</text><text x="212" y="50">1</text><text x="260" y="50">2</text><text x="308" y="50">3</text><text x="356" y="50">4</text>
  </g>
  <g fill="#f1f5f9" stroke="#94a3b8">
    <rect x="140" y="58" width="48" height="42"/><rect x="188" y="58" width="48" height="42"/><rect x="236" y="58" width="48" height="42"/><rect x="284" y="58" width="48" height="42"/><rect x="332" y="58" width="48" height="42"/>
  </g>
  <g fill="#1e293b" font-size="19" text-anchor="middle" font-family="ui-monospace,Menlo,monospace">
    <text x="164" y="86">2</text><text x="212" y="86">4</text><text x="260" y="86">1</text><text x="308" y="86">5</text><text x="356" y="86">3</text>
  </g>
  <g fill="#94a3b8" font-size="12" text-anchor="middle" font-family="ui-monospace,Menlo,monospace">
    <text x="140" y="130">0</text><text x="188" y="130">1</text><text x="236" y="130">2</text><text x="284" y="130">3</text><text x="332" y="130">4</text><text x="380" y="130">5</text>
  </g>
  <g stroke="#94a3b8">
    <rect x="116" y="138" width="48" height="42" fill="#f1f5f9"/>
    <rect x="164" y="138" width="48" height="42" fill="#dbeafe" stroke="#60a5fa"/>
    <rect x="212" y="138" width="48" height="42" fill="#f1f5f9"/>
    <rect x="260" y="138" width="48" height="42" fill="#f1f5f9"/>
    <rect x="308" y="138" width="48" height="42" fill="#f1f5f9"/>
    <rect x="356" y="138" width="48" height="42" fill="#dbeafe" stroke="#60a5fa"/>
  </g>
  <g fill="#1e293b" font-size="19" text-anchor="middle" font-family="ui-monospace,Menlo,monospace">
    <text x="140" y="166">0</text><text x="188" y="166">2</text><text x="236" y="166">6</text><text x="284" y="166">7</text><text x="332" y="166">12</text><text x="380" y="166">15</text>
  </g>
  <text x="188" y="200" fill="#2563eb" font-size="12" text-anchor="middle" font-weight="600">P[1]</text>
  <text x="380" y="200" fill="#2563eb" font-size="12" text-anchor="middle" font-weight="600">P[5]</text>
  <text x="260" y="222" fill="#475569" font-size="13" text-anchor="middle">range sum a[l..r] = P[r+1] - P[l]</text>
</svg>
