<svg xmlns="http://www.w3.org/2000/svg" viewBox="0 0 520 200" font-family="ui-sans-serif,-apple-system,Segoe UI,Roboto,sans-serif">
  <rect x="1" y="1" width="518" height="198" rx="10" fill="#ffffff" stroke="#e2e8f0"/>
  <g fill="#94a3b8" font-size="12" text-anchor="middle" font-family="ui-monospace,Menlo,monospace">
    <text x="120" y="54">0</text><text x="176" y="54">1</text><text x="232" y="54">2</text><text x="288" y="54">3</text><text x="344" y="54">4</text><text x="400" y="54">5</text>
  </g>
  <g fill="#f1f5f9" stroke="#94a3b8">
    <rect x="92" y="64" width="56" height="52"/><rect x="316" y="64" width="56" height="52"/><rect x="372" y="64" width="56" height="52"/>
  </g>
  <g fill="#dbeafe" stroke="#60a5fa">
    <rect x="148" y="64" width="56" height="52"/><rect x="204" y="64" width="56" height="52"/><rect x="260" y="64" width="56" height="52"/>
  </g>
  <g fill="#1e293b" font-size="21" text-anchor="middle" font-family="ui-monospace,Menlo,monospace">
    <text x="120" y="98">a</text><text x="176" y="98">b</text><text x="232" y="98">c</text><text x="288" y="98">a</text><text x="344" y="98">b</text><text x="400" y="98">c</text>
  </g>
  <path d="M148 40 L148 34 L316 34 L316 40" fill="none" stroke="#2563eb" stroke-width="1.5"/>
  <text x="232" y="26" fill="#2563eb" font-size="12" text-anchor="middle" font-weight="600">window</text>
  <polygon points="176,124 168,136 184,136" fill="#2563eb"/>
  <text x="176" y="155" fill="#2563eb" font-size="13" text-anchor="middle" font-weight="600">left</text>
  <polygon points="288,124 280,136 296,136" fill="#dc2626"/>
  <text x="288" y="155" fill="#dc2626" font-size="13" text-anchor="middle" font-weight="600">right</text>
  <text x="260" y="185" fill="#475569" font-size="13" text-anchor="middle">expand right to grow the window; when it breaks the rule, shrink left</text>
</svg>
