<svg xmlns="http://www.w3.org/2000/svg" viewBox="0 0 520 234" font-family="ui-sans-serif,-apple-system,Segoe UI,Roboto,sans-serif">
  <rect x="1" y="1" width="518" height="232" rx="10" fill="#ffffff" stroke="#e2e8f0"/>
  <text x="46" y="76" fill="#94a3b8" font-size="12" text-anchor="middle">unsorted</text>
  <g fill="#f1f5f9" stroke="#94a3b8">
    <rect x="92" y="50" width="48" height="44"/><rect x="140" y="50" width="48" height="44"/><rect x="188" y="50" width="48" height="44"/><rect x="236" y="50" width="48" height="44"/><rect x="284" y="50" width="48" height="44"/><rect x="332" y="50" width="48" height="44"/><rect x="380" y="50" width="48" height="44"/>
  </g>
  <g fill="#1e293b" font-size="19" text-anchor="middle" font-family="ui-monospace,Menlo,monospace">
    <text x="116" y="79">3</text><text x="164" y="79">1</text><text x="212" y="79">4</text><text x="260" y="79">1</text><text x="308" y="79">5</text><text x="356" y="79">9</text><text x="404" y="79">2</text>
  </g>
  <line x1="260" y1="102" x2="260" y2="140" stroke="#d97706" stroke-width="1.5"/>
  <polygon points="260,146 252,134 268,134" fill="#d97706"/>
  <text x="342" y="126" fill="#d97706" font-size="13" text-anchor="middle" font-weight="600">sort: O(n log n)</text>
  <text x="46" y="176" fill="#94a3b8" font-size="12" text-anchor="middle">sorted</text>
  <g fill="#f1f5f9" stroke="#94a3b8">
    <rect x="92" y="150" width="48" height="44"/><rect x="140" y="150" width="48" height="44"/><rect x="188" y="150" width="48" height="44"/><rect x="236" y="150" width="48" height="44"/><rect x="284" y="150" width="48" height="44"/><rect x="332" y="150" width="48" height="44"/><rect x="380" y="150" width="48" height="44"/>
  </g>
  <g fill="#1e293b" font-size="19" text-anchor="middle" font-family="ui-monospace,Menlo,monospace">
    <text x="116" y="179">1</text><text x="164" y="179">1</text><text x="212" y="179">2</text><text x="260" y="179">3</text><text x="308" y="179">4</text><text x="356" y="179">5</text><text x="404" y="179">9</text>
  </g>
  <text x="260" y="220" fill="#475569" font-size="13" text-anchor="middle">many problems get easy once sorted</text>
</svg>
