<svg xmlns="http://www.w3.org/2000/svg" viewBox="0 0 520 278" font-family="ui-sans-serif,-apple-system,Segoe UI,Roboto,sans-serif">
  <rect x="1" y="1" width="518" height="276" rx="10" fill="#ffffff" stroke="#e2e8f0"/>
  <defs>
    <marker id="sm-b" markerWidth="9" markerHeight="9" refX="5" refY="3" orient="auto"><path d="M0,0 L6,3 L0,6 Z" fill="#2563eb"/></marker>
    <marker id="sm-g" markerWidth="9" markerHeight="9" refX="5" refY="3" orient="auto"><path d="M0,0 L6,3 L0,6 Z" fill="#059669"/></marker>
    <marker id="sm-m" markerWidth="9" markerHeight="9" refX="5" refY="3" orient="auto"><path d="M0,0 L6,3 L0,6 Z" fill="#94a3b8"/></marker>
  </defs>
  <path d="M199,112 Q270,66 341,112" fill="none" stroke="#2563eb" stroke-width="1.5" marker-end="url(#sm-b)"/>
  <path d="M341,168 Q270,214 199,168" fill="none" stroke="#059669" stroke-width="1.5" marker-end="url(#sm-g)"/>
  <path d="M116,124 C78,104 78,176 116,156" fill="none" stroke="#94a3b8" stroke-width="1.5" marker-end="url(#sm-m)"/>
  <path d="M424,124 C462,104 462,176 424,156" fill="none" stroke="#94a3b8" stroke-width="1.5" marker-end="url(#sm-m)"/>
  <circle cx="160" cy="140" r="48" fill="#f1f5f9" stroke="#94a3b8"/>
  <circle cx="380" cy="140" r="48" fill="#f1f5f9" stroke="#94a3b8"/>
  <g fill="#1e293b" font-size="20" text-anchor="middle" font-family="ui-monospace,Menlo,monospace">
    <text x="160" y="147">cash</text><text x="380" y="147">hold</text>
  </g>
  <text x="270" y="60" fill="#2563eb" font-size="13" text-anchor="middle" font-weight="600" font-family="ui-monospace,Menlo,monospace">buy (-price)</text>
  <text x="270" y="228" fill="#059669" font-size="13" text-anchor="middle" font-weight="600" font-family="ui-monospace,Menlo,monospace">sell (+price)</text>
  <text x="70" y="144" fill="#475569" font-size="12" text-anchor="middle">hold</text>
  <text x="470" y="144" fill="#475569" font-size="12" text-anchor="middle">hold</text>
  <text x="260" y="252" fill="#475569" font-size="12" text-anchor="middle">the stock DP is a tiny state machine;</text>
  <text x="260" y="268" fill="#475569" font-size="12" text-anchor="middle">cooldown or fee just adds a state or edits an edge</text>
</svg>
