<svg xmlns="http://www.w3.org/2000/svg" viewBox="0 0 520 250" font-family="ui-sans-serif,-apple-system,Segoe UI,Roboto,sans-serif">
  <rect x="1" y="1" width="518" height="248" rx="10" fill="#ffffff" stroke="#e2e8f0"/>
  <g fill="#eef2ff" stroke="#e2e8f0" rx="6">
    <rect x="86" y="26" width="418" height="44" rx="6"/><rect x="86" y="90" width="418" height="44" rx="6"/><rect x="86" y="154" width="418" height="44" rx="6"/>
  </g>
  <g fill="#94a3b8" font-size="12" text-anchor="start" font-family="ui-monospace,Menlo,monospace">
    <text x="18" y="52">level 0</text><text x="18" y="116">level 1</text><text x="18" y="180">level 2</text>
  </g>
  <g stroke="#94a3b8" stroke-width="1.5">
    <line x1="260" y1="48" x2="170" y2="112"/><line x1="260" y1="48" x2="350" y2="112"/>
    <line x1="170" y1="112" x2="120" y2="176"/><line x1="170" y1="112" x2="220" y2="176"/>
    <line x1="350" y1="112" x2="300" y2="176"/><line x1="350" y1="112" x2="400" y2="176"/>
  </g>
  <g stroke="#94a3b8" fill="#f1f5f9">
    <circle cx="260" cy="48" r="20"/><circle cx="170" cy="112" r="20"/><circle cx="350" cy="112" r="20"/>
    <circle cx="120" cy="176" r="20"/><circle cx="220" cy="176" r="20"/><circle cx="300" cy="176" r="20"/><circle cx="400" cy="176" r="20"/>
  </g>
  <g fill="#1e293b" font-size="18" text-anchor="middle" font-family="ui-monospace,Menlo,monospace">
    <text x="260" y="54">1</text><text x="170" y="118">2</text><text x="350" y="118">3</text>
    <text x="120" y="182">4</text><text x="220" y="182">5</text><text x="300" y="182">6</text><text x="400" y="182">7</text>
  </g>
  <text x="260" y="230" fill="#475569" font-size="13" text-anchor="middle">BFS visits one level at a time</text>
</svg>
