<svg xmlns="http://www.w3.org/2000/svg" viewBox="0 0 520 250" font-family="ui-sans-serif,-apple-system,Segoe UI,Roboto,sans-serif">
  <rect x="1" y="1" width="518" height="248" rx="10" fill="#ffffff" stroke="#e2e8f0"/>
  <g stroke="#94a3b8" stroke-width="1.5">
    <line x1="260" y1="48" x2="170" y2="112"/><line x1="260" y1="48" x2="350" y2="112"/>
    <line x1="170" y1="112" x2="120" y2="176"/><line x1="170" y1="112" x2="220" y2="176"/>
    <line x1="350" y1="112" x2="300" y2="176"/><line x1="350" y1="112" x2="400" y2="176"/>
  </g>
  <g stroke="#94a3b8" fill="#f1f5f9">
    <circle cx="260" cy="48" r="20"/><circle cx="170" cy="112" r="20"/><circle cx="350" cy="112" r="20"/>
    <circle cx="120" cy="176" r="20"/><circle cx="220" cy="176" r="20"/><circle cx="300" cy="176" r="20"/><circle cx="400" cy="176" r="20"/>
  </g>
  <g fill="#1e293b" font-size="18" text-anchor="middle" font-family="ui-monospace,Menlo,monospace">
    <text x="260" y="54">1</text><text x="170" y="118">2</text><text x="350" y="118">3</text>
    <text x="120" y="182">4</text><text x="220" y="182">5</text><text x="300" y="182">6</text><text x="400" y="182">7</text>
  </g>
  <g text-anchor="middle" font-size="14" font-family="ui-monospace,Menlo,monospace">
    <text x="260" y="220" fill="#475569"><tspan fill="#94a3b8">preorder</tspan>  1 2 4 5 3 6 7</text>
    <text x="260" y="240" fill="#475569"><tspan fill="#94a3b8">inorder</tspan>  4 2 5 1 6 3 7</text>
  </g>
</svg>
