<svg xmlns="http://www.w3.org/2000/svg" viewBox="0 0 520 322" font-family="ui-sans-serif,-apple-system,Segoe UI,Roboto,sans-serif">
  <rect x="1" y="1" width="518" height="320" rx="10" fill="#ffffff" stroke="#e2e8f0"/>
  <g stroke="#94a3b8" stroke-width="1.5">
    <line x1="260" y1="48" x2="170" y2="112"/><line x1="260" y1="48" x2="360" y2="112"/>
    <line x1="170" y1="112" x2="170" y2="176"/>
    <line x1="170" y1="176" x2="135" y2="240"/><line x1="170" y1="176" x2="205" y2="240"/>
    <line x1="360" y1="112" x2="360" y2="176"/>
    <line x1="360" y1="176" x2="360" y2="240"/>
  </g>
  <g stroke="#94a3b8">
    <circle cx="260" cy="48" r="20" fill="#f1f5f9"/>
    <circle cx="170" cy="112" r="20" fill="#f1f5f9"/>
    <circle cx="360" cy="112" r="20" fill="#f1f5f9"/>
    <circle cx="170" cy="176" r="20" fill="#f1f5f9"/>
    <circle cx="360" cy="176" r="20" fill="#f1f5f9"/>
    <circle cx="135" cy="240" r="20" fill="#fde68a" stroke="#d97706" stroke-width="2"/>
    <circle cx="205" cy="240" r="20" fill="#fde68a" stroke="#d97706" stroke-width="2"/>
    <circle cx="360" cy="240" r="20" fill="#fde68a" stroke="#d97706" stroke-width="2"/>
  </g>
  <text x="260" y="53" fill="#1e293b" font-size="12" text-anchor="middle" font-family="ui-monospace,Menlo,monospace">root</text>
  <g fill="#1e293b" font-size="18" text-anchor="middle" font-family="ui-monospace,Menlo,monospace">
    <text x="170" y="118">c</text><text x="360" y="118">d</text>
    <text x="170" y="182">a</text><text x="360" y="182">o</text>
    <text x="135" y="246">t</text><text x="205" y="246">r</text><text x="360" y="246">g</text>
  </g>
  <g fill="#d97706" font-size="12" text-anchor="middle" font-weight="600" font-family="ui-monospace,Menlo,monospace">
    <text x="135" y="278">cat</text><text x="205" y="278">car</text><text x="360" y="278">dog</text>
  </g>
  <text x="260" y="306" fill="#475569" font-size="13" text-anchor="middle">shared prefix 'ca' stored once</text>
</svg>
