<svg xmlns="http://www.w3.org/2000/svg" viewBox="0 0 520 200" font-family="ui-sans-serif,-apple-system,Segoe UI,Roboto,sans-serif">
  <rect x="1" y="1" width="518" height="198" rx="10" fill="#ffffff" stroke="#e2e8f0"/>
  <g fill="#94a3b8" font-size="12" text-anchor="middle" font-family="ui-monospace,Menlo,monospace">
    <text x="148" y="46">0</text><text x="204" y="46">1</text><text x="260" y="46">2</text><text x="316" y="46">3</text><text x="372" y="46">4</text>
  </g>
  <g fill="#f1f5f9" stroke="#94a3b8">
    <rect x="120" y="56" width="56" height="52"/><rect x="176" y="56" width="56" height="52"/><rect x="232" y="56" width="56" height="52"/><rect x="288" y="56" width="56" height="52"/><rect x="344" y="56" width="56" height="52"/>
  </g>
  <g fill="#1e293b" font-size="21" text-anchor="middle" font-family="ui-monospace,Menlo,monospace">
    <text x="148" y="89">2</text><text x="204" y="89">3</text><text x="260" y="89">5</text><text x="316" y="89">7</text><text x="372" y="89">8</text>
  </g>
  <polygon points="148,116 140,128 156,128" fill="#2563eb"/>
  <text x="148" y="147" fill="#2563eb" font-size="13" text-anchor="middle" font-weight="600">left</text>
  <polygon points="372,116 364,128 380,128" fill="#dc2626"/>
  <text x="372" y="147" fill="#dc2626" font-size="13" text-anchor="middle" font-weight="600">right</text>
  <text x="260" y="180" fill="#475569" font-size="13" text-anchor="middle">a[left] + a[right] = 2 + 8 = 10 &gt; target 9, so move right inward</text>
</svg>
